<svg xmlns="http://www.w3.org/2000/svg" width="99" height="99" viewBox="0 0 99 99" fill="none">
  <path d="M49.0588 0C22.0131 0 0 22.0008 0 49.0588C0 76.1045 22.0008 98.1176 49.0588 98.1176C76.1168 98.1176 98.1176 76.1045 98.1176 49.0588C98.1176 22.0131 76.1045 0 49.0588 0ZM49.0588 92.8512C24.9047 92.8512 5.26641 73.2006 5.26641 49.0588C5.26641 24.9047 24.917 5.26641 49.0588 5.26641C73.2006 5.26641 92.8512 24.917 92.8512 49.0588C92.8512 73.2129 73.2129 92.8512 49.0588 92.8512Z" fill="#39C4FF"/>
  <path d="M49.0586 67.2819C43.3492 67.2819 38.7227 71.9085 38.7227 77.6179C38.7227 83.3272 43.3492 87.9538 49.0586 87.9538C54.768 87.9538 59.3945 83.3272 59.3945 77.6179C59.3945 71.9085 54.768 67.2819 49.0586 67.2819ZM49.0586 82.6997C46.2531 82.6997 43.9768 80.4233 43.9768 77.6179C43.9768 74.8124 46.2531 72.536 49.0586 72.536C51.8641 72.536 54.1404 74.8124 54.1404 77.6179C54.1404 80.4233 51.8641 82.6997 49.0586 82.6997ZM49.0586 10.1636C42.1926 10.1636 36.6432 15.7253 36.6309 22.579C36.6309 29.4327 42.1557 61.6218 49.0463 61.6218C55.9369 61.6218 61.4617 29.4327 61.4617 22.579C61.474 15.7253 55.9123 10.1636 49.0586 10.1636ZM53.3529 40.913C51.6795 48.1974 50.1291 52.2456 49.0586 54.4235C47.9881 52.2456 46.45 48.2097 44.7643 40.913C42.8939 32.7796 41.8973 25.0399 41.8973 22.579C41.8973 18.6292 45.1088 15.4177 49.0586 15.4177C53.0084 15.4177 56.2199 18.6292 56.2199 22.579C56.2199 25.0399 55.2232 32.7796 53.3529 40.913Z" fill="#39C4FF"/>
</svg>