<svg width="71" height="71" viewBox="0 0 71 71" fill="none" xmlns="http://www.w3.org/2000/svg">
<rect width="71" height="71" rx="19" fill="#39C4FF"/>
<path d="M49.7666 22.3561C45.8947 18.4796 40.7466 16.3447 35.2708 16.3447C31.2477 16.3447 27.3863 17.4974 24.0566 19.6844L23.8102 19.4313C22.8855 18.4815 21.567 18.1095 20.2832 18.4363C18.9994 18.7632 18.0185 19.7204 17.6593 20.997L15.3703 29.1326C15.0112 30.409 15.3487 31.738 16.2731 32.6877C16.9769 33.4106 17.9089 33.7988 18.8801 33.7988C19.1846 33.7988 19.493 33.7606 19.7995 33.6826L27.9818 31.6006C29.2657 31.2739 30.2467 30.3168 30.606 29.0403C30.9059 27.9749 30.7187 26.8736 30.1116 25.9861C31.7125 25.2256 33.4762 24.8258 35.2708 24.8258C41.9036 24.8258 47.2998 30.2284 47.2998 36.869C47.2998 43.5096 41.9036 48.9122 35.2708 48.9122C31.8217 48.9122 28.533 47.4257 26.248 44.8339C24.7026 43.0811 22.0206 42.9136 20.2697 44.4608C19.4215 45.2104 18.9156 46.2457 18.8452 47.3763C18.7748 48.5067 19.1484 49.597 19.897 50.4463C23.7892 54.8612 29.3928 57.3933 35.2708 57.3933C40.7466 57.3933 45.8948 55.2584 49.7666 51.3819C53.6386 47.5053 55.7709 42.3513 55.7709 36.869C55.7709 31.3867 53.6385 26.2327 49.7666 22.3561ZM28.9753 28.5803C28.7822 29.2666 28.2548 29.7812 27.5645 29.9568L19.3822 32.0387C18.6922 32.2144 17.9834 32.0143 17.4864 31.5038C16.9894 30.9932 16.808 30.2788 17.001 29.5925L19.2902 21.4567C19.4832 20.7704 20.0105 20.2558 20.7008 20.0801C21.3912 19.9045 22.0999 20.1044 22.5969 20.6151L25.3984 23.4929L28.1603 26.3302C28.1606 26.3305 28.1608 26.3306 28.1611 26.3309L28.49 26.6688C28.987 27.1794 29.1685 27.894 28.9753 28.5803ZM48.5686 50.1825C45.0166 53.7386 40.2941 55.6971 35.2708 55.6971C29.8785 55.6971 24.7379 53.3741 21.1672 49.3238C20.718 48.8142 20.4939 48.16 20.5361 47.4818C20.5783 46.8035 20.8819 46.1822 21.3907 45.7325C21.8732 45.3063 22.4731 45.097 23.071 45.097C23.7752 45.097 24.4762 45.3876 24.9778 45.9564C27.5842 48.9128 31.3359 50.6084 35.2708 50.6084C42.8379 50.6084 48.994 44.4449 48.994 36.869C48.994 29.2931 42.8378 23.1296 35.2708 23.1296C33.0506 23.1296 30.8696 23.6649 28.9225 24.6828L27.9475 23.6813L25.263 20.9235C28.2522 19.0345 31.6913 18.0409 35.2708 18.0409C40.2941 18.0409 45.0166 19.9994 48.5686 23.5555C52.1206 27.1117 54.0766 31.8398 54.0766 36.869C54.0766 41.8982 52.1205 46.6263 48.5686 50.1825Z" fill="white"/>
<path d="M50.5961 44.8417C50.4777 44.8417 50.3574 44.8168 50.2428 44.764C49.8177 44.5685 49.6315 44.0649 49.8268 43.6393C50.7921 41.5366 51.2815 39.2872 51.2815 36.9537C51.2815 33.9209 50.4317 30.9686 48.824 28.4161C48.5745 28.0199 48.693 27.4962 49.0887 27.2464C49.4845 26.9964 50.0075 27.1152 50.2571 27.5114C52.0356 30.3351 52.9757 33.6003 52.9757 36.9538C52.9757 39.5335 52.4342 42.0212 51.3663 44.3476C51.2237 44.6585 50.9167 44.8417 50.5961 44.8417Z" fill="white"/>
<path d="M46.791 25.4809C46.5834 25.4809 46.3756 25.405 46.2121 25.2518C45.0375 24.1504 43.711 23.2357 42.2695 22.533C41.8488 22.3279 41.6739 21.8203 41.8786 21.3992C42.0834 20.9781 42.5904 20.8029 43.011 21.0078C44.605 21.7849 46.0717 22.7962 47.3702 24.0137C47.7117 24.3339 47.7292 24.8707 47.4095 25.2125C47.2427 25.3908 47.0171 25.4809 46.791 25.4809Z" fill="white"/>
<path d="M39.058 44.2476C38.3792 44.2476 37.7409 43.983 37.261 43.5024L33.4914 39.7283C33.0107 39.247 32.7473 38.6086 32.748 37.9279C32.7474 37.9143 32.7471 37.9006 32.7471 37.8868V29.1513C32.7471 27.7483 33.8871 26.6069 35.2884 26.6069C36.6897 26.6069 37.8297 27.7483 37.8297 29.1513V36.8753L40.8551 39.9041C41.8458 40.8962 41.8458 42.5103 40.8551 43.5023C40.3751 43.9829 39.7369 44.2476 39.058 44.2476ZM34.4413 37.8638C34.4418 37.875 34.4421 37.8861 34.4423 37.8974C34.4424 37.9045 34.4423 37.9114 34.4423 37.9184C34.4393 38.1496 34.5271 38.3665 34.6895 38.529L38.459 42.3031C38.6191 42.4633 38.8318 42.5515 39.058 42.5515C39.2843 42.5515 39.4971 42.4633 39.657 42.3031C39.9872 41.9725 39.9872 41.4344 39.657 41.1037L36.3835 37.8264C36.2247 37.6674 36.1354 37.4516 36.1354 37.2267V29.1513C36.1354 28.6836 35.7554 28.3032 35.2883 28.3032C34.8212 28.3032 34.4412 28.6836 34.4412 29.1513L34.4413 37.8638Z" fill="white"/>
</svg>
