<svg width="71" height="71" viewBox="0 0 71 71" fill="none" xmlns="http://www.w3.org/2000/svg">
<rect width="71" height="71" rx="19" fill="#39C4FF"/>
<path d="M51.8888 40.3462H38.2708V47.1611H51.8888V40.3462ZM49.6184 45.4563H40.5412V42.0466H49.6184V45.4563ZM54.1548 19.8972H17.846C15.9672 19.8972 14.4404 21.4258 14.4404 23.3069V49.4386C14.4404 51.3196 15.9628 52.8482 17.846 52.8482H54.1592C56.038 52.8482 57.5648 51.3196 57.5648 49.4386V23.3024C57.5604 21.4214 56.038 19.8972 54.1548 19.8972ZM55.29 48.2976C55.29 49.5531 54.2736 50.5707 53.0196 50.5707H18.9812C17.7272 50.5707 16.7108 49.5531 16.7108 48.2976V36.9366H55.29V48.2976ZM55.29 34.0952H16.7108V30.6856H55.29V34.0952ZM55.29 27.8486H16.7108V24.439C16.7108 23.1835 17.7272 22.1659 18.9812 22.1659H53.024C54.278 22.1659 55.2944 23.1835 55.2944 24.439L55.29 27.8486Z" fill="white"/>
</svg>
