<svg width="71" height="71" viewBox="0 0 71 71" fill="none" xmlns="http://www.w3.org/2000/svg">
<rect width="71" height="71" rx="19" fill="#39C4FF"/>
<path fill-rule="evenodd" clip-rule="evenodd" d="M14.2103 29.5362V49.7499H49.3107L49.2546 42.4909C48.0525 42.4952 46.8561 42.6578 45.6963 42.9746V43.6223C44.9115 43.6405 44.1656 43.9683 43.6211 44.5345C43.0766 45.1006 42.7776 45.8593 42.7892 46.6451H20.6973C20.6973 44.758 19.3343 43.4237 17.6781 43.4366V35.422C18.4636 35.4049 19.2106 35.0776 19.756 34.5113C20.3014 33.945 20.601 33.1858 20.5894 32.3992H39.852C40.0461 32.261 40.2315 32.1271 40.3997 31.9673C41.5146 31.018 42.7363 30.2021 44.04 29.5362H14.2103ZM62 35.0463L53.1753 43.8123L53.2184 39.4077C47.6976 38.2115 41.4608 39.6193 38.1224 43.7994C38.7607 35.1499 46.5632 30.8316 53.2961 30.6157L53.3349 26.1204L62 35.0419V35.0463ZM35.7415 37.4213C35.3176 36.6148 34.6643 35.9523 33.8643 35.5176C33.0642 35.0829 32.1534 34.8954 31.2469 34.979C30.3405 35.0626 29.4792 35.4134 28.7719 35.9871C28.0646 36.5608 27.5432 37.3316 27.2735 38.2021C27.0038 39.0725 26.998 40.0035 27.2568 40.8772C27.5156 41.751 28.0274 42.5282 28.7275 43.1107C29.4275 43.6932 30.2844 44.0548 31.1897 44.1497C32.0951 44.2446 33.0082 44.0686 33.8136 43.6439C34.8933 43.0746 35.7029 42.0992 36.0645 40.9323C36.426 39.7654 36.3099 38.5025 35.7415 37.4213ZM9 24.3542V43.1862H11.4024V29.4714C11.3968 29.1621 11.4556 28.8551 11.5752 28.5698C11.6948 28.2846 11.8726 28.0275 12.097 27.815C12.3215 27.6025 12.5878 27.4391 12.8789 27.3355C13.17 27.2318 13.4795 27.1901 13.7876 27.2129H42.1164V24.3542H9Z" fill="white"/>
</svg>
